<svg role="img" xmlns="http://www.w3.org/2000/svg" viewBox="0 0 24 24"><title>Instagram icon</title><path d="M12 2.163c3.204 0 3.584.012 4.85.07 1.366.062 2.42.336 3.295.707a6.37 6.37 0 0 1 2.356 1.584 6.37 6.37 0 0 1 1.584 2.356c.37.875.645 1.93.707 3.295.058 1.266.07 1.646.07 4.85s-.012 3.584-.07 4.85c-.062 1.366-.337 2.42-.707 3.295a6.37 6.37 0 0 1-1.584 2.356 6.37 6.37 0 0 1-2.356 1.584c-.875.37-1.93.645-3.295.707-1.267.058-1.647.07-4.85.07s-3.584-.012-4.85-.07c-1.366-.062-2.42-.337-3.295-.707a6.37 6.37 0 0 1-2.356-1.584 6.37 6.37 0 0 1-1.584-2.356c-.37-.875-.645-1.93-.707-3.295-.058-1.266-.07-1.646-.07-4.85s.012-3.584.07-4.85c.062-1.366.337-2.42.707-3.295a6.37 6.37 0 0 1 1.584-2.356 6.37 6.37 0 0 1 2.356-1.584c.875-.37 1.929-.645 3.295-.707 1.266-.058 1.646-.07 4.85-.07zm0 1.982c-3.204 0-3.584.01-4.85.07-1.265.06-1.96.312-2.4.65-.507.39-.88.9-1.27 1.5-.39.6-.59 1.296-.65 2.56-.06 1.266-.07 1.646-.07 4.85s.01 3.584.07 4.85c.06 1.265.26 1.96.65 2.56.39.6.763 1.11 1.27 1.5.44.338 1.135.59 2.4.65 1.266.06 1.646.07 4.85.07s3.584-.01 4.85-.07c1.265-.06 1.96-.312 2.4-.65.507-.39.88-.9 1.27-1.5.39-.6.59-1.296.65-2.56.06-1.266.07-1.646.07-4.85s-.01-3.584-.07-4.85c-.06-1.265-.26-1.96-.65-2.56-.39-.6-.763-1.11-1.27-1.5-.44-.338-1.135-.59-2.4-.65-1.266-.06-1.646-.07-4.85-.07zm0 3.918c3.403 0 6.162 2.76 6.162 6.162s-2.76 6.163-6.162 6.163-6.162-2.76-6.162-6.163 2.759-6.162 6.162-6.162zm0 10.162c2.209 0 4-1.79 4-4s-1.791-4-4-4-4 1.79-4 4 1.791 4 4 4zm6.406-11.845c0 .662-.537 1.198-1.2 1.198a1.198 1.198 0 1 1 1.2-1.197"></path></svg>